<?xml version="1.0" standalone="no"?><svg xmlns="http://www.w3.org/2000/svg" viewBox="0 0 1440 320"><path fill="#00cba9" fill-opacity="0.3" d="M0,256L6.2,229.3C12.3,203,25,149,37,154.7C49.2,160,62,224,74,256C86.2,288,98,288,111,277.3C123.1,267,135,245,148,245.3C160,245,172,267,185,282.7C196.9,299,209,309,222,282.7C233.8,256,246,192,258,149.3C270.8,107,283,85,295,106.7C307.7,128,320,192,332,192C344.6,192,357,128,369,117.3C381.5,107,394,149,406,165.3C418.5,181,431,171,443,160C455.4,149,468,139,480,117.3C492.3,96,505,64,517,69.3C529.2,75,542,117,554,117.3C566.2,117,578,75,591,80C603.1,85,615,139,628,144C640,149,652,107,665,122.7C676.9,139,689,213,702,250.7C713.8,288,726,288,738,250.7C750.8,213,763,139,775,117.3C787.7,96,800,128,812,138.7C824.6,149,837,139,849,165.3C861.5,192,874,256,886,256C898.5,256,911,192,923,176C935.4,160,948,192,960,186.7C972.3,181,985,139,997,117.3C1009.2,96,1022,96,1034,117.3C1046.2,139,1058,181,1071,213.3C1083.1,245,1095,267,1108,272C1120,277,1132,267,1145,256C1156.9,245,1169,235,1182,218.7C1193.8,203,1206,181,1218,192C1230.8,203,1243,245,1255,229.3C1267.7,213,1280,139,1292,117.3C1304.6,96,1317,128,1329,165.3C1341.5,203,1354,245,1366,224C1378.5,203,1391,117,1403,85.3C1415.4,53,1428,75,1434,85.3L1440,96L1440,0L1433.8,0C1427.7,0,1415,0,1403,0C1390.8,0,1378,0,1366,0C1353.8,0,1342,0,1329,0C1316.9,0,1305,0,1292,0C1280,0,1268,0,1255,0C1243.1,0,1231,0,1218,0C1206.2,0,1194,0,1182,0C1169.2,0,1157,0,1145,0C1132.3,0,1120,0,1108,0C1095.4,0,1083,0,1071,0C1058.5,0,1046,0,1034,0C1021.5,0,1009,0,997,0C984.6,0,972,0,960,0C947.7,0,935,0,923,0C910.8,0,898,0,886,0C873.8,0,862,0,849,0C836.9,0,825,0,812,0C800,0,788,0,775,0C763.1,0,751,0,738,0C726.2,0,714,0,702,0C689.2,0,677,0,665,0C652.3,0,640,0,628,0C615.4,0,603,0,591,0C578.5,0,566,0,554,0C541.5,0,529,0,517,0C504.6,0,492,0,480,0C467.7,0,455,0,443,0C430.8,0,418,0,406,0C393.8,0,382,0,369,0C356.9,0,345,0,332,0C320,0,308,0,295,0C283.1,0,271,0,258,0C246.2,0,234,0,222,0C209.2,0,197,0,185,0C172.3,0,160,0,148,0C135.4,0,123,0,111,0C98.5,0,86,0,74,0C61.5,0,49,0,37,0C24.6,0,12,0,6,0L0,0Z"></path></svg>